<mxfile host="app.diagrams.net" modified="2024-04-17T20:14:17.550Z" agent="Mozilla/5.0 (Windows NT 10.0; Win64; x64) AppleWebKit/537.36 (KHTML, like Gecko) Chrome/123.0.0.0 Safari/537.36" etag="LQ10S3YqrdmTeNi9eeE0" version="24.2.5" type="github">
  <diagram name="Page-1" id="HxmHJ5XtMmUV5TgHk41c">
    <mxGraphModel dx="2216" dy="1112" grid="1" gridSize="10" guides="1" tooltips="1" connect="1" arrows="1" fold="1" page="1" pageScale="1" pageWidth="827" pageHeight="1169" math="0" shadow="0">
      <root>
        <mxCell id="0" />
        <mxCell id="1" parent="0" />
        <mxCell id="SVw2IhIicjWtyVmH9mM5-1" value="ProductosAlimenticios" style="swimlane;fontStyle=1;align=center;verticalAlign=top;childLayout=stackLayout;horizontal=1;startSize=26;horizontalStack=0;resizeParent=1;resizeParentMax=0;resizeLast=0;collapsible=1;marginBottom=0;whiteSpace=wrap;html=1;" vertex="1" parent="1">
          <mxGeometry x="1010" y="710" width="260" height="120" as="geometry" />
        </mxCell>
        <mxCell id="SVw2IhIicjWtyVmH9mM5-2" value="+ InformacionNutricional: string" style="text;strokeColor=none;fillColor=none;align=left;verticalAlign=top;spacingLeft=4;spacingRight=4;overflow=hidden;rotatable=0;points=[[0,0.5],[1,0.5]];portConstraint=eastwest;whiteSpace=wrap;html=1;" vertex="1" parent="SVw2IhIicjWtyVmH9mM5-1">
          <mxGeometry y="26" width="260" height="26" as="geometry" />
        </mxCell>
        <mxCell id="SVw2IhIicjWtyVmH9mM5-3" value="" style="line;strokeWidth=1;fillColor=none;align=left;verticalAlign=middle;spacingTop=-1;spacingLeft=3;spacingRight=3;rotatable=0;labelPosition=right;points=[];portConstraint=eastwest;strokeColor=inherit;" vertex="1" parent="SVw2IhIicjWtyVmH9mM5-1">
          <mxGeometry y="52" width="260" height="8" as="geometry" />
        </mxCell>
        <mxCell id="SVw2IhIicjWtyVmH9mM5-4" value="+ ProductosAlimenticios()&lt;div&gt;+ ProductosAlimenticios(string)&lt;/div&gt;&lt;div&gt;+ MostrarInformacion(): void&lt;/div&gt;" style="text;strokeColor=none;fillColor=none;align=left;verticalAlign=top;spacingLeft=4;spacingRight=4;overflow=hidden;rotatable=0;points=[[0,0.5],[1,0.5]];portConstraint=eastwest;whiteSpace=wrap;html=1;" vertex="1" parent="SVw2IhIicjWtyVmH9mM5-1">
          <mxGeometry y="60" width="260" height="60" as="geometry" />
        </mxCell>
        <mxCell id="SVw2IhIicjWtyVmH9mM5-5" value="Usuario" style="swimlane;fontStyle=1;align=center;verticalAlign=top;childLayout=stackLayout;horizontal=1;startSize=26;horizontalStack=0;resizeParent=1;resizeParentMax=0;resizeLast=0;collapsible=1;marginBottom=0;whiteSpace=wrap;html=1;" vertex="1" parent="1">
          <mxGeometry x="440" y="680" width="240" height="280" as="geometry" />
        </mxCell>
        <mxCell id="SVw2IhIicjWtyVmH9mM5-6" value="+ NickName: string&amp;nbsp;&lt;div&gt;+ Nombre: string&lt;/div&gt;&lt;div&gt;+ Ape1: string&lt;/div&gt;&lt;div&gt;+ Ape2: string&amp;nbsp;&lt;/div&gt;&lt;div&gt;- Password: string&lt;/div&gt;&lt;div&gt;+ EsAdmin: bool&amp;nbsp;&lt;/div&gt;&lt;div&gt;# Maquina: MaquinaExpendedora&lt;/div&gt;&lt;div&gt;# InterfazUsuario: InterfazUsuario&lt;/div&gt;&lt;div&gt;+ ClaveAdmin: string&lt;/div&gt;" style="text;strokeColor=none;fillColor=none;align=left;verticalAlign=top;spacingLeft=4;spacingRight=4;overflow=hidden;rotatable=0;points=[[0,0.5],[1,0.5]];portConstraint=eastwest;whiteSpace=wrap;html=1;" vertex="1" parent="SVw2IhIicjWtyVmH9mM5-5">
          <mxGeometry y="26" width="240" height="144" as="geometry" />
        </mxCell>
        <mxCell id="SVw2IhIicjWtyVmH9mM5-7" value="" style="line;strokeWidth=1;fillColor=none;align=left;verticalAlign=middle;spacingTop=-1;spacingLeft=3;spacingRight=3;rotatable=0;labelPosition=right;points=[];portConstraint=eastwest;strokeColor=inherit;" vertex="1" parent="SVw2IhIicjWtyVmH9mM5-5">
          <mxGeometry y="170" width="240" height="8" as="geometry" />
        </mxCell>
        <mxCell id="SVw2IhIicjWtyVmH9mM5-8" value="+ Usuario()&lt;div&gt;+ Usuario(string, string, string, string, string, bool, MaquinaExpendedora, string)&lt;/div&gt;&lt;div&gt;+ GetRealNombre(): string&amp;nbsp;&lt;/div&gt;&lt;div&gt;+ Login(string, string): bool&lt;/div&gt;&lt;div&gt;+ Menu(bool): void&lt;/div&gt;&lt;div&gt;&lt;br&gt;&lt;/div&gt;" style="text;strokeColor=none;fillColor=none;align=left;verticalAlign=top;spacingLeft=4;spacingRight=4;overflow=hidden;rotatable=0;points=[[0,0.5],[1,0.5]];portConstraint=eastwest;whiteSpace=wrap;html=1;" vertex="1" parent="SVw2IhIicjWtyVmH9mM5-5">
          <mxGeometry y="178" width="240" height="102" as="geometry" />
        </mxCell>
        <mxCell id="SVw2IhIicjWtyVmH9mM5-9" value="ProductosElectronicos" style="swimlane;fontStyle=1;align=center;verticalAlign=top;childLayout=stackLayout;horizontal=1;startSize=26;horizontalStack=0;resizeParent=1;resizeParentMax=0;resizeLast=0;collapsible=1;marginBottom=0;whiteSpace=wrap;html=1;" vertex="1" parent="1">
          <mxGeometry x="1120" y="510" width="240" height="190" as="geometry" />
        </mxCell>
        <mxCell id="SVw2IhIicjWtyVmH9mM5-10" value="+ TipoMaterial: string&lt;div&gt;+ TieneBateria: bool&amp;nbsp;&lt;/div&gt;&lt;div&gt;+ Precargado: bool&amp;nbsp;&lt;/div&gt;" style="text;strokeColor=none;fillColor=none;align=left;verticalAlign=top;spacingLeft=4;spacingRight=4;overflow=hidden;rotatable=0;points=[[0,0.5],[1,0.5]];portConstraint=eastwest;whiteSpace=wrap;html=1;" vertex="1" parent="SVw2IhIicjWtyVmH9mM5-9">
          <mxGeometry y="26" width="240" height="54" as="geometry" />
        </mxCell>
        <mxCell id="SVw2IhIicjWtyVmH9mM5-11" value="" style="line;strokeWidth=1;fillColor=none;align=left;verticalAlign=middle;spacingTop=-1;spacingLeft=3;spacingRight=3;rotatable=0;labelPosition=right;points=[];portConstraint=eastwest;strokeColor=inherit;" vertex="1" parent="SVw2IhIicjWtyVmH9mM5-9">
          <mxGeometry y="80" width="240" height="8" as="geometry" />
        </mxCell>
        <mxCell id="SVw2IhIicjWtyVmH9mM5-12" value="+ ProductosElectronicos()&lt;div&gt;+ ProductosElectronicos(string, bool, bool)&lt;/div&gt;&lt;div&gt;+ MostrarInformacion(): void&lt;/div&gt;" style="text;strokeColor=none;fillColor=none;align=left;verticalAlign=top;spacingLeft=4;spacingRight=4;overflow=hidden;rotatable=0;points=[[0,0.5],[1,0.5]];portConstraint=eastwest;whiteSpace=wrap;html=1;" vertex="1" parent="SVw2IhIicjWtyVmH9mM5-9">
          <mxGeometry y="88" width="240" height="102" as="geometry" />
        </mxCell>
        <mxCell id="SVw2IhIicjWtyVmH9mM5-13" value="MaquinaExpendedora" style="swimlane;fontStyle=1;align=center;verticalAlign=top;childLayout=stackLayout;horizontal=1;startSize=26;horizontalStack=0;resizeParent=1;resizeParentMax=0;resizeLast=0;collapsible=1;marginBottom=0;whiteSpace=wrap;html=1;" vertex="1" parent="1">
          <mxGeometry x="1140" y="210" width="240" height="120" as="geometry" />
        </mxCell>
        <mxCell id="SVw2IhIicjWtyVmH9mM5-14" value="+ Listaproductos: List&amp;lt;Producto&amp;gt;&lt;div&gt;+ Usuario: Usuario&lt;/div&gt;" style="text;strokeColor=none;fillColor=none;align=left;verticalAlign=top;spacingLeft=4;spacingRight=4;overflow=hidden;rotatable=0;points=[[0,0.5],[1,0.5]];portConstraint=eastwest;whiteSpace=wrap;html=1;" vertex="1" parent="SVw2IhIicjWtyVmH9mM5-13">
          <mxGeometry y="26" width="240" height="44" as="geometry" />
        </mxCell>
        <mxCell id="SVw2IhIicjWtyVmH9mM5-15" value="" style="line;strokeWidth=1;fillColor=none;align=left;verticalAlign=middle;spacingTop=-1;spacingLeft=3;spacingRight=3;rotatable=0;labelPosition=right;points=[];portConstraint=eastwest;strokeColor=inherit;" vertex="1" parent="SVw2IhIicjWtyVmH9mM5-13">
          <mxGeometry y="70" width="240" height="8" as="geometry" />
        </mxCell>
        <mxCell id="SVw2IhIicjWtyVmH9mM5-16" value="+ MaquinaExpendedora()&lt;div&gt;+ MaquinaExpendedora(Usuario)&lt;/div&gt;" style="text;strokeColor=none;fillColor=none;align=left;verticalAlign=top;spacingLeft=4;spacingRight=4;overflow=hidden;rotatable=0;points=[[0,0.5],[1,0.5]];portConstraint=eastwest;whiteSpace=wrap;html=1;" vertex="1" parent="SVw2IhIicjWtyVmH9mM5-13">
          <mxGeometry y="78" width="240" height="42" as="geometry" />
        </mxCell>
        <mxCell id="SVw2IhIicjWtyVmH9mM5-17" value="MaterialesPreciosos" style="swimlane;fontStyle=1;align=center;verticalAlign=top;childLayout=stackLayout;horizontal=1;startSize=26;horizontalStack=0;resizeParent=1;resizeParentMax=0;resizeLast=0;collapsible=1;marginBottom=0;whiteSpace=wrap;html=1;" vertex="1" parent="1">
          <mxGeometry x="760" y="670" width="220" height="140" as="geometry" />
        </mxCell>
        <mxCell id="SVw2IhIicjWtyVmH9mM5-18" value="+ TipoMaterial: string&amp;nbsp;&lt;div&gt;+ Peso: double&amp;nbsp;&lt;/div&gt;" style="text;strokeColor=none;fillColor=none;align=left;verticalAlign=top;spacingLeft=4;spacingRight=4;overflow=hidden;rotatable=0;points=[[0,0.5],[1,0.5]];portConstraint=eastwest;whiteSpace=wrap;html=1;" vertex="1" parent="SVw2IhIicjWtyVmH9mM5-17">
          <mxGeometry y="26" width="220" height="44" as="geometry" />
        </mxCell>
        <mxCell id="SVw2IhIicjWtyVmH9mM5-19" value="" style="line;strokeWidth=1;fillColor=none;align=left;verticalAlign=middle;spacingTop=-1;spacingLeft=3;spacingRight=3;rotatable=0;labelPosition=right;points=[];portConstraint=eastwest;strokeColor=inherit;" vertex="1" parent="SVw2IhIicjWtyVmH9mM5-17">
          <mxGeometry y="70" width="220" height="8" as="geometry" />
        </mxCell>
        <mxCell id="SVw2IhIicjWtyVmH9mM5-20" value="+ MaterialesPreciosos()&lt;div&gt;+ MaterialesPreciosos(string, double)&lt;/div&gt;&lt;div&gt;+ MostrarInformacion(): void&lt;/div&gt;" style="text;strokeColor=none;fillColor=none;align=left;verticalAlign=top;spacingLeft=4;spacingRight=4;overflow=hidden;rotatable=0;points=[[0,0.5],[1,0.5]];portConstraint=eastwest;whiteSpace=wrap;html=1;" vertex="1" parent="SVw2IhIicjWtyVmH9mM5-17">
          <mxGeometry y="78" width="220" height="62" as="geometry" />
        </mxCell>
        <mxCell id="SVw2IhIicjWtyVmH9mM5-21" value="Producto" style="swimlane;fontStyle=1;align=center;verticalAlign=top;childLayout=stackLayout;horizontal=1;startSize=26;horizontalStack=0;resizeParent=1;resizeParentMax=0;resizeLast=0;collapsible=1;marginBottom=0;whiteSpace=wrap;html=1;" vertex="1" parent="1">
          <mxGeometry x="860" y="220" width="180" height="310" as="geometry" />
        </mxCell>
        <mxCell id="SVw2IhIicjWtyVmH9mM5-22" value="+ Nombre: string&amp;nbsp;&lt;div&gt;+ Unidades: int&lt;/div&gt;&lt;div&gt;+ PrecioUnitario: double&amp;nbsp;&lt;/div&gt;&lt;div&gt;+ Descripcion: string&amp;nbsp;&lt;/div&gt;&lt;div&gt;+ Id: int&lt;/div&gt;&lt;div&gt;+ Vendido: bool&lt;/div&gt;" style="text;strokeColor=none;fillColor=none;align=left;verticalAlign=top;spacingLeft=4;spacingRight=4;overflow=hidden;rotatable=0;points=[[0,0.5],[1,0.5]];portConstraint=eastwest;whiteSpace=wrap;html=1;" vertex="1" parent="SVw2IhIicjWtyVmH9mM5-21">
          <mxGeometry y="26" width="180" height="104" as="geometry" />
        </mxCell>
        <mxCell id="SVw2IhIicjWtyVmH9mM5-23" value="" style="line;strokeWidth=1;fillColor=none;align=left;verticalAlign=middle;spacingTop=-1;spacingLeft=3;spacingRight=3;rotatable=0;labelPosition=right;points=[];portConstraint=eastwest;strokeColor=inherit;" vertex="1" parent="SVw2IhIicjWtyVmH9mM5-21">
          <mxGeometry y="130" width="180" height="8" as="geometry" />
        </mxCell>
        <mxCell id="SVw2IhIicjWtyVmH9mM5-24" value="+ Producto()&lt;div&gt;+ Producto(string, int, double, string)&lt;/div&gt;&lt;div&gt;+ Producto(string, int, double, string, int, bool)&lt;/div&gt;&lt;div&gt;+ MostrarInformacion(): void&lt;/div&gt;&lt;div&gt;+ EstaVendido(): bool&amp;nbsp;&lt;/div&gt;&lt;div&gt;+ MarcarComoVendido(): void&lt;/div&gt;" style="text;strokeColor=none;fillColor=none;align=left;verticalAlign=top;spacingLeft=4;spacingRight=4;overflow=hidden;rotatable=0;points=[[0,0.5],[1,0.5]];portConstraint=eastwest;whiteSpace=wrap;html=1;" vertex="1" parent="SVw2IhIicjWtyVmH9mM5-21">
          <mxGeometry y="138" width="180" height="172" as="geometry" />
        </mxCell>
        <mxCell id="SVw2IhIicjWtyVmH9mM5-25" value="GestorCompra" style="swimlane;fontStyle=1;align=center;verticalAlign=top;childLayout=stackLayout;horizontal=1;startSize=26;horizontalStack=0;resizeParent=1;resizeParentMax=0;resizeLast=0;collapsible=1;marginBottom=0;whiteSpace=wrap;html=1;" vertex="1" parent="1">
          <mxGeometry x="40" y="550" width="240" height="250" as="geometry" />
        </mxCell>
        <mxCell id="SVw2IhIicjWtyVmH9mM5-26" value="- Listaproductos: List&amp;lt;Producto&amp;gt;&lt;div&gt;&lt;br&gt;&lt;/div&gt;" style="text;strokeColor=none;fillColor=none;align=left;verticalAlign=top;spacingLeft=4;spacingRight=4;overflow=hidden;rotatable=0;points=[[0,0.5],[1,0.5]];portConstraint=eastwest;whiteSpace=wrap;html=1;" vertex="1" parent="SVw2IhIicjWtyVmH9mM5-25">
          <mxGeometry y="26" width="240" height="26" as="geometry" />
        </mxCell>
        <mxCell id="SVw2IhIicjWtyVmH9mM5-27" value="" style="line;strokeWidth=1;fillColor=none;align=left;verticalAlign=middle;spacingTop=-1;spacingLeft=3;spacingRight=3;rotatable=0;labelPosition=right;points=[];portConstraint=eastwest;strokeColor=inherit;" vertex="1" parent="SVw2IhIicjWtyVmH9mM5-25">
          <mxGeometry y="52" width="240" height="8" as="geometry" />
        </mxCell>
        <mxCell id="SVw2IhIicjWtyVmH9mM5-28" value="+ GestorCompra()&lt;div&gt;+ GestorCompra(List&amp;lt;Producto&amp;gt;)&lt;/div&gt;&lt;div&gt;+ IniciarCompra(double, int): void&lt;/div&gt;&lt;div&gt;- SeleccionarMetodoPago(double, int): void&lt;/div&gt;&lt;div&gt;+ PagoEfectivo(double, int): void&lt;/div&gt;&lt;div&gt;- PedirCantidadPagada(double): double&amp;nbsp;&lt;/div&gt;&lt;div&gt;- CalcularCambio(double, double): double&amp;nbsp;&lt;/div&gt;&lt;div&gt;- MostrarCambio(double): void&lt;/div&gt;&lt;div&gt;+ PagoTarjeta(double, int): void&lt;/div&gt;&lt;div&gt;- ProcesarPago(double, int): void&lt;/div&gt;&lt;div&gt;- RegistrarVenta(Producto, double): void&lt;/div&gt;" style="text;strokeColor=none;fillColor=none;align=left;verticalAlign=top;spacingLeft=4;spacingRight=4;overflow=hidden;rotatable=0;points=[[0,0.5],[1,0.5]];portConstraint=eastwest;whiteSpace=wrap;html=1;" vertex="1" parent="SVw2IhIicjWtyVmH9mM5-25">
          <mxGeometry y="60" width="240" height="190" as="geometry" />
        </mxCell>
        <mxCell id="SVw2IhIicjWtyVmH9mM5-29" value="&lt;p style=&quot;margin:0px;margin-top:4px;text-align:center;&quot;&gt;&lt;i&gt;&amp;lt;&amp;lt;Interface&amp;gt;&amp;gt;&lt;/i&gt;&lt;br&gt;&lt;b&gt;InterfaceUsuario&lt;/b&gt;&lt;/p&gt;&lt;hr size=&quot;1&quot; style=&quot;border-style:solid;&quot;&gt;&lt;p style=&quot;margin:0px;margin-left:4px;&quot;&gt;- Maquina: MaquinaExpendedora&lt;br&gt;- Usuario: Usuario&lt;/p&gt;&lt;p style=&quot;margin:0px;margin-left:4px;&quot;&gt;+ Listaproductos: List&amp;lt;Producto&amp;gt;&lt;/p&gt;&lt;p style=&quot;margin:0px;margin-left:4px;&quot;&gt;- GestorCompra: GestorCompra&lt;/p&gt;&lt;p style=&quot;margin:0px;margin-left:4px;&quot;&gt;- ListaUsuariosAdmin: List&amp;lt;Usuario&amp;gt;&lt;/p&gt;&lt;p style=&quot;margin:0px;margin-left:4px;&quot;&gt;- ListaUsuariosCliente: List&amp;lt;Usuario&amp;gt;&amp;nbsp;&lt;/p&gt;&lt;hr size=&quot;1&quot; style=&quot;border-style:solid;&quot;&gt;&lt;p style=&quot;margin:0px;margin-left:4px;&quot;&gt;+ InterfazUsuario()&lt;br&gt;+ InterfazUsuario(MaquinaExpendedora, Usuario)&lt;/p&gt;&lt;p style=&quot;margin:0px;margin-left:4px;&quot;&gt;+ InterfazUsuario(MaquinaExpendedora, Usuario, List&amp;lt;Producto&amp;gt;&lt;/p&gt;&lt;p style=&quot;margin:0px;margin-left:4px;&quot;&gt;+ ElegirProducto(): Producto&lt;/p&gt;&lt;p style=&quot;margin:0px;margin-left:4px;&quot;&gt;+ MostrarMenuPrincipal(): void&lt;/p&gt;&lt;p style=&quot;margin:0px;margin-left:4px;&quot;&gt;+ MostrarProductos(bool): void&lt;/p&gt;&lt;p style=&quot;margin:0px;margin-left:4px;&quot;&gt;+ ComprarProducto(int): void&lt;/p&gt;&lt;p style=&quot;margin:0px;margin-left:4px;&quot;&gt;+ PagoEfectivo(double, int): void&lt;/p&gt;&lt;p style=&quot;margin:0px;margin-left:4px;&quot;&gt;+ PagoTarjeta(double, int): void&amp;nbsp;&lt;/p&gt;&lt;p style=&quot;margin:0px;margin-left:4px;&quot;&gt;+ CargarIndividualProductos(): void&lt;/p&gt;&lt;p style=&quot;margin:0px;margin-left:4px;&quot;&gt;+ CargarTodosLosProductos(): void&lt;/p&gt;&lt;p style=&quot;margin:0px;margin-left:4px;&quot;&gt;+ Salir(): void&lt;/p&gt;&lt;p style=&quot;margin:0px;margin-left:4px;&quot;&gt;+ Salir(bool): void&amp;nbsp;&lt;/p&gt;" style="verticalAlign=top;align=left;overflow=fill;html=1;whiteSpace=wrap;" vertex="1" parent="1">
          <mxGeometry x="450" y="190" width="240" height="350" as="geometry" />
        </mxCell>
        <mxCell id="SVw2IhIicjWtyVmH9mM5-30" value="Extends" style="endArrow=block;endSize=16;endFill=0;html=1;rounded=0;entryX=0.591;entryY=-0.014;entryDx=0;entryDy=0;entryPerimeter=0;" edge="1" parent="1" source="SVw2IhIicjWtyVmH9mM5-21" target="SVw2IhIicjWtyVmH9mM5-17">
          <mxGeometry width="160" relative="1" as="geometry">
            <mxPoint x="770" y="610" as="sourcePoint" />
            <mxPoint x="930" y="610" as="targetPoint" />
          </mxGeometry>
        </mxCell>
        <mxCell id="SVw2IhIicjWtyVmH9mM5-31" value="Extends" style="endArrow=block;endSize=16;endFill=0;html=1;rounded=0;" edge="1" parent="1" source="SVw2IhIicjWtyVmH9mM5-21" target="SVw2IhIicjWtyVmH9mM5-9">
          <mxGeometry width="160" relative="1" as="geometry">
            <mxPoint x="1000" y="500" as="sourcePoint" />
            <mxPoint x="1160" y="500" as="targetPoint" />
          </mxGeometry>
        </mxCell>
        <mxCell id="SVw2IhIicjWtyVmH9mM5-32" value="Extends" style="endArrow=block;endSize=16;endFill=0;html=1;rounded=0;entryX=0.195;entryY=0.006;entryDx=0;entryDy=0;entryPerimeter=0;exitX=0.604;exitY=1;exitDx=0;exitDy=0;exitPerimeter=0;" edge="1" parent="1" source="SVw2IhIicjWtyVmH9mM5-24" target="SVw2IhIicjWtyVmH9mM5-1">
          <mxGeometry width="160" relative="1" as="geometry">
            <mxPoint x="1000" y="500" as="sourcePoint" />
            <mxPoint x="1160" y="500" as="targetPoint" />
          </mxGeometry>
        </mxCell>
        <mxCell id="SVw2IhIicjWtyVmH9mM5-33" value="1" style="endArrow=open;html=1;endSize=12;startArrow=diamondThin;startSize=14;startFill=0;edgeStyle=orthogonalEdgeStyle;align=left;verticalAlign=bottom;rounded=0;exitX=1;exitY=0.076;exitDx=0;exitDy=0;exitPerimeter=0;" edge="1" parent="1" source="SVw2IhIicjWtyVmH9mM5-29" target="SVw2IhIicjWtyVmH9mM5-21">
          <mxGeometry x="-1" y="3" relative="1" as="geometry">
            <mxPoint x="700" y="390" as="sourcePoint" />
            <mxPoint x="860" y="390" as="targetPoint" />
          </mxGeometry>
        </mxCell>
        <mxCell id="SVw2IhIicjWtyVmH9mM5-34" value="Use" style="endArrow=open;endSize=12;dashed=1;html=1;rounded=0;exitX=0.633;exitY=-0.004;exitDx=0;exitDy=0;exitPerimeter=0;entryX=0.178;entryY=1.011;entryDx=0;entryDy=0;entryPerimeter=0;" edge="1" parent="1" source="SVw2IhIicjWtyVmH9mM5-5" target="SVw2IhIicjWtyVmH9mM5-29">
          <mxGeometry width="160" relative="1" as="geometry">
            <mxPoint x="1070" y="560" as="sourcePoint" />
            <mxPoint x="1230" y="560" as="targetPoint" />
          </mxGeometry>
        </mxCell>
        <mxCell id="SVw2IhIicjWtyVmH9mM5-35" value="1" style="endArrow=open;html=1;endSize=12;startArrow=diamondThin;startSize=14;startFill=0;edgeStyle=orthogonalEdgeStyle;align=left;verticalAlign=bottom;rounded=0;entryX=0.25;entryY=0;entryDx=0;entryDy=0;exitX=0.5;exitY=0;exitDx=0;exitDy=0;" edge="1" parent="1" source="SVw2IhIicjWtyVmH9mM5-29" target="SVw2IhIicjWtyVmH9mM5-13">
          <mxGeometry x="-0.9753" y="10" relative="1" as="geometry">
            <mxPoint x="570.0000000000005" y="160" as="sourcePoint" />
            <mxPoint x="1200" y="180" as="targetPoint" />
            <Array as="points">
              <mxPoint x="570" y="110" />
              <mxPoint x="1200" y="110" />
            </Array>
            <mxPoint as="offset" />
          </mxGeometry>
        </mxCell>
        <mxCell id="SVw2IhIicjWtyVmH9mM5-36" value="1" style="endArrow=open;html=1;endSize=12;startArrow=diamondThin;startSize=14;startFill=0;edgeStyle=orthogonalEdgeStyle;align=left;verticalAlign=bottom;rounded=0;exitX=0.583;exitY=0;exitDx=0;exitDy=0;exitPerimeter=0;entryX=0.389;entryY=0;entryDx=0;entryDy=0;entryPerimeter=0;" edge="1" parent="1" source="SVw2IhIicjWtyVmH9mM5-25" target="SVw2IhIicjWtyVmH9mM5-21">
          <mxGeometry x="-0.9861" y="-10" relative="1" as="geometry">
            <mxPoint x="690" y="560" as="sourcePoint" />
            <mxPoint x="850" y="560" as="targetPoint" />
            <Array as="points">
              <mxPoint x="180" y="40" />
              <mxPoint x="930" y="40" />
            </Array>
            <mxPoint as="offset" />
          </mxGeometry>
        </mxCell>
        <mxCell id="SVw2IhIicjWtyVmH9mM5-37" value="Use" style="endArrow=open;endSize=12;dashed=1;html=1;rounded=0;entryX=0.56;entryY=0.981;entryDx=0;entryDy=0;entryPerimeter=0;exitX=0.893;exitY=1.043;exitDx=0;exitDy=0;exitPerimeter=0;" edge="1" parent="1" source="SVw2IhIicjWtyVmH9mM5-16" target="SVw2IhIicjWtyVmH9mM5-28">
          <mxGeometry width="160" relative="1" as="geometry">
            <mxPoint x="620" y="620" as="sourcePoint" />
            <mxPoint x="780" y="620" as="targetPoint" />
            <Array as="points">
              <mxPoint x="1390" y="350" />
              <mxPoint x="1420" y="610" />
              <mxPoint x="1420" y="1060" />
              <mxPoint x="310" y="1070" />
            </Array>
          </mxGeometry>
        </mxCell>
        <mxCell id="SVw2IhIicjWtyVmH9mM5-38" value="Use" style="endArrow=open;endSize=12;dashed=1;html=1;rounded=0;entryX=1.014;entryY=0.924;entryDx=0;entryDy=0;exitX=0.488;exitY=1.043;exitDx=0;exitDy=0;exitPerimeter=0;entryPerimeter=0;" edge="1" parent="1" source="SVw2IhIicjWtyVmH9mM5-16" target="SVw2IhIicjWtyVmH9mM5-6">
          <mxGeometry width="160" relative="1" as="geometry">
            <mxPoint x="860" y="960" as="sourcePoint" />
            <mxPoint x="1020" y="960" as="targetPoint" />
            <Array as="points">
              <mxPoint x="1390" y="520" />
              <mxPoint x="1370" y="850" />
              <mxPoint x="800" y="1000" />
            </Array>
          </mxGeometry>
        </mxCell>
        <mxCell id="SVw2IhIicjWtyVmH9mM5-39" value="Use" style="endArrow=open;endSize=12;dashed=1;html=1;rounded=0;entryX=0;entryY=0;entryDx=0;entryDy=0;exitX=0.923;exitY=0.004;exitDx=0;exitDy=0;exitPerimeter=0;" edge="1" parent="1" source="SVw2IhIicjWtyVmH9mM5-25" target="SVw2IhIicjWtyVmH9mM5-29">
          <mxGeometry width="160" relative="1" as="geometry">
            <mxPoint x="620" y="540" as="sourcePoint" />
            <mxPoint x="780" y="540" as="targetPoint" />
          </mxGeometry>
        </mxCell>
      </root>
    </mxGraphModel>
  </diagram>
</mxfile>
